# xmcd CD database file
#
# Track frame offsets:
#	150
#	19125
#	30798
#	44971
#	60611
#	76996
#	92750
#	112660
#	129220
#	140239
#	153647
#	166312
#	177374
#	191481
#	196632
#	210309
#	217957
#	226906
#	236843
#
# Disc length: 3378 seconds
#
# Revision: 0
# Processed by: cddbd v1.5.2PL0 Copyright (c) Steve Scherf et al.
# Submitted via: CDex 1.51
#
DISCID=f70d3013
DTITLE=Jambalaya Parade Band - Jambalaya Parade Band
DYEAR=2002
DGENRE=Jazz
TTITLE0=Panama Rag
TTITLE1=Feels So Good
TTITLE2=Abide With Me
TTITLE3=Purple Gazelle
TTITLE4=I'm Walking
TTITLE5=Blue Monk
TTITLE6=Li'l Liza Jane
TTITLE7=When My Dream Boat Comes Home
TTITLE8=Lily of the Valley
TTITLE9=Flee As A Bird
TTITLE10=Big Chief
TTITLE11=Mardi Gras In New Orleans
TTITLE12=Boats Boogie
TTITLE13=Pleyer's Hymn
TTITLE14=The Funky Cookie
TTITLE15=Jambalaya
TTITLE16=You Are My Sunshine
TTITLE17=How Great Thou Art
TTITLE18=Go To New Orleans
EXTD=YEAR: 2002
EXTT0=
EXTT1=
EXTT2=
EXTT3=
EXTT4=
EXTT5=
EXTT6=
EXTT7=
EXTT8=
EXTT9=
EXTT10=
EXTT11=
EXTT12=
EXTT13=
EXTT14=
EXTT15=
EXTT16=
EXTT17=
EXTT18=
PLAYORDER=
